<svg width="24" height="22" viewBox="0 0 24 22" fill="none" xmlns="http://www.w3.org/2000/svg">
<path d="M16.3662 1.4209C17.8542 0.326898 20.0225 1.49018 19.793 3.39258L19.3799 6.81836C19.3384 7.16272 19.4377 7.56747 19.6777 8.00488C19.8403 8.30111 20.0189 8.52149 20.2188 8.66992L22.1357 10.0938C23.2876 10.9491 23.2877 12.6612 22.1357 13.5166L20.3018 14.8789C20.0487 15.0668 19.8258 15.3446 19.6182 15.709C19.6012 15.7387 19.5837 15.7683 19.5664 15.7979C19.4831 15.9398 19.3964 16.0788 19.3057 16.2139C19.1443 16.4541 19.032 16.6683 18.9688 16.8711L18.3652 18.8066C18.0286 19.8865 16.9129 20.507 15.8242 20.2607L13.8203 19.8066C13.6037 19.7576 13.3533 19.7466 13.0576 19.7646C12.86 19.7767 12.6616 19.7816 12.4629 19.7793C12.0324 19.7743 11.6719 19.8254 11.377 19.9482L9.26367 20.8291C7.96415 21.3707 6.46524 20.5476 6.28613 19.1221L5.99902 16.8291C5.96506 16.5586 5.84638 16.2617 5.64648 15.9355C5.38569 15.5101 5.09043 15.2049 4.75977 15.0352L2.16504 13.7041C0.611685 12.9066 0.611661 10.7039 2.16504 9.90625L4.8877 8.50879C5.13684 8.38091 5.36808 8.14697 5.56445 7.8125C5.5818 7.78293 5.59952 7.75288 5.61719 7.72363C5.83464 7.36371 5.96663 7.0377 6.00488 6.7334L6.28613 4.48828C6.46516 3.06268 7.9641 2.23966 9.26367 2.78125L11.4756 3.70312C11.7087 3.80017 11.9957 3.84273 12.3418 3.83301C12.8522 3.81864 13.2671 3.6989 13.5576 3.48535L16.3662 1.4209Z" fill="#FF8A7C" stroke="white" stroke-width="2"/>
</svg>
