<svg width="100" height="101" viewBox="0 0 100 101" fill="none" xmlns="http://www.w3.org/2000/svg">
<path d="M69.3888 84.557C69.3902 84.5579 69.392 84.5575 69.3929 84.5561C69.3938 84.5548 69.3956 84.5544 69.397 84.5553L70.9479 85.5835C71.8059 86.1523 72.0403 87.3089 71.4715 88.1668L64.6072 98.5209C64.0384 99.3789 62.8819 99.6133 62.024 99.0445C61.166 98.4757 60.9316 97.3192 61.5004 96.4613L61.8399 95.9492C62.4718 94.996 62.2113 93.7111 61.2582 93.0792L45.7296 82.7845C44.7764 82.1526 44.516 80.8676 45.1479 79.9144L49.2668 73.7014C49.8987 72.7482 51.1837 72.4878 52.1368 73.1197L69.3888 84.557Z" fill="url(#paint0_linear_40000071_8786)"/>
<path d="M84.4072 79.8724C84.4075 79.8725 84.4076 79.8727 84.4076 79.873C84.4075 79.8732 84.4077 79.8735 84.408 79.8735L85.6312 80.0843C86.307 80.2008 86.7604 80.8431 86.644 81.5189L84.4286 94.3743C84.2538 95.3887 83.2898 96.0693 82.2754 95.8945C81.261 95.7197 80.5804 94.7557 80.7552 93.7413L80.8607 93.1291C81.0549 92.0021 80.2987 90.931 79.1718 90.7368L60.8074 87.5721C59.6804 87.3779 58.9243 86.3069 59.1185 85.1799L60.3844 77.8338C60.5786 76.7068 61.6497 75.9506 62.7767 76.1449L84.4072 79.8724Z" fill="url(#paint1_linear_40000071_8786)"/>
<path d="M62.6476 0H37.3624C36.4656 0 35.5931 0.291061 34.876 0.829435L14.029 16.4799C13.3622 16.9806 12.8619 17.6709 12.5939 18.4606L3.86421 44.1758C3.57121 45.0389 3.57114 45.9745 3.86398 46.8377L12.5885 72.5523C12.8565 73.3423 13.3568 74.0329 14.0239 74.5337L34.8716 90.184C35.5888 90.7223 36.4612 91.0134 37.3579 91.0134H62.6428C63.5395 91.0134 64.412 90.7223 65.1292 90.1839L85.9761 74.5334C86.643 74.0328 87.1432 73.3424 87.4113 72.5528L96.141 46.8376C96.434 45.9745 96.434 45.0389 96.1412 44.1757L87.4167 18.4611C87.1487 17.6711 86.6484 16.9805 85.9813 16.4797L65.1339 0.8294C64.4168 0.291049 63.5443 0 62.6476 0Z" fill="#82EBD1"/>
<g filter="url(#filter0_d_40000071_8786)">
<rect x="17.0215" y="51.7578" width="9.11097" height="13.2523" rx="4.55549" fill="white"/>
<rect x="38.5566" y="51.7578" width="8.69683" height="13.2523" rx="4.34842" fill="white"/>
</g>
<defs>
<filter id="filter0_d_40000071_8786" x="15.3649" y="50.9295" width="33.5455" height="16.565" filterUnits="userSpaceOnUse" color-interpolation-filters="sRGB">
<feFlood flood-opacity="0" result="BackgroundImageFix"/>
<feColorMatrix in="SourceAlpha" type="matrix" values="0 0 0 0 0 0 0 0 0 0 0 0 0 0 0 0 0 0 127 0" result="hardAlpha"/>
<feOffset dy="0.82827"/>
<feGaussianBlur stdDeviation="0.82827"/>
<feComposite in2="hardAlpha" operator="out"/>
<feColorMatrix type="matrix" values="0 0 0 0 0 0 0 0 0 0 0 0 0 0 0 0 0 0 0.1 0"/>
<feBlend mode="normal" in2="BackgroundImageFix" result="effect1_dropShadow_40000071_8786"/>
<feBlend mode="normal" in="SourceGraphic" in2="effect1_dropShadow_40000071_8786" result="shape"/>
</filter>
<linearGradient id="paint0_linear_40000071_8786" x1="68.0394" y1="93.3439" x2="45.9522" y2="78.7012" gradientUnits="userSpaceOnUse">
<stop stop-color="#82EBD1"/>
<stop offset="1" stop-color="#00CA97"/>
</linearGradient>
<linearGradient id="paint1_linear_40000071_8786" x1="85.4835" y1="88.2526" x2="59.3646" y2="83.7516" gradientUnits="userSpaceOnUse">
<stop stop-color="#82EBD1"/>
<stop offset="1" stop-color="#00CA97"/>
</linearGradient>
</defs>
</svg>
