<svg width="100" height="101" viewBox="0 0 100 101" fill="none" xmlns="http://www.w3.org/2000/svg">
<path d="M17.1387 80.2135C17.1384 80.2135 17.1382 80.2133 17.1381 80.2131C17.1381 80.2128 17.1378 80.2126 17.1375 80.2127L16.0896 80.4253C15.5105 80.5428 14.9459 80.1686 14.8284 79.5896L12.5912 68.5622C12.4148 67.6925 12.9768 66.8443 13.8466 66.6679C14.7163 66.4914 15.5645 67.0535 15.7409 67.9232L15.8477 68.4496C16.0438 69.4161 16.9863 70.0407 17.9528 69.8446L33.7012 66.6496C34.6677 66.4535 35.6102 67.0781 35.8063 68.0447L37.0844 74.3449C37.2805 75.3114 36.656 76.2539 35.6894 76.45L17.1387 80.2135Z" fill="url(#paint0_linear_40000071_8797)"/>
<path d="M41.3908 98.9508C41.3904 98.9512 41.3898 98.9512 41.3894 98.9508C41.389 98.9504 41.3884 98.9504 41.388 98.9508L40.6319 99.7069C40.2139 100.125 39.5362 100.125 39.1182 99.7069L31.1622 91.7509C30.5347 91.1234 30.5347 90.1059 31.1622 89.4784C31.7898 88.8508 32.8072 88.8508 33.4348 89.4784L33.8152 89.8588C34.5126 90.5562 35.6432 90.5562 36.3406 89.8588L47.7032 78.4962C48.4006 77.7988 49.5312 77.7988 50.2286 78.4962L54.7743 83.0419C55.4717 83.7392 55.4717 84.8699 54.7743 85.5673L41.3908 98.9508Z" fill="url(#paint1_linear_40000071_8797)"/>
<path d="M65.3994 0.326131C66.6382 -0.539815 68.3253 0.429098 68.2021 1.93551L67.1816 14.4072C79.862 20.7258 88.5741 33.8185 88.5742 48.9482C88.5742 70.2506 71.3053 87.5195 50.0029 87.5195C28.7006 87.5194 11.4316 70.2506 11.4316 48.9482C11.4318 27.646 28.7007 10.377 50.0029 10.3769C50.3369 10.3769 50.67 10.3812 51.002 10.3896L65.3994 0.326131Z" fill="#AF85FF"/>
<g filter="url(#filter0_d_40000071_8797)">
<rect x="17.1064" y="33.9844" width="7.85714" height="11.4286" rx="3.92857" fill="white"/>
<rect x="35.4072" y="33.9844" width="7.5" height="11.4286" rx="3.75" fill="white"/>
</g>
<defs>
<filter id="filter0_d_40000071_8797" x="15.6779" y="33.2701" width="28.6579" height="14.2859" filterUnits="userSpaceOnUse" color-interpolation-filters="sRGB">
<feFlood flood-opacity="0" result="BackgroundImageFix"/>
<feColorMatrix in="SourceAlpha" type="matrix" values="0 0 0 0 0 0 0 0 0 0 0 0 0 0 0 0 0 0 127 0" result="hardAlpha"/>
<feOffset dy="0.714286"/>
<feGaussianBlur stdDeviation="0.714286"/>
<feComposite in2="hardAlpha" operator="out"/>
<feColorMatrix type="matrix" values="0 0 0 0 0 0 0 0 0 0 0 0 0 0 0 0 0 0 0.1 0"/>
<feBlend mode="normal" in2="BackgroundImageFix" result="effect1_dropShadow_40000071_8797"/>
<feBlend mode="normal" in="SourceGraphic" in2="effect1_dropShadow_40000071_8797" result="shape"/>
</filter>
<linearGradient id="paint0_linear_40000071_8797" x1="40.1086" y1="68.1261" x2="16.979" y2="80.1856" gradientUnits="userSpaceOnUse">
<stop stop-color="#5413D0"/>
<stop offset="1" stop-color="#AF85FF"/>
</linearGradient>
<linearGradient id="paint1_linear_40000071_8797" x1="53.8595" y1="76.1871" x2="41.2404" y2="99.0163" gradientUnits="userSpaceOnUse">
<stop stop-color="#5413D0"/>
<stop offset="1" stop-color="#AF85FF"/>
</linearGradient>
</defs>
</svg>
