<svg width="100" height="100" viewBox="0 0 100 100" fill="none" xmlns="http://www.w3.org/2000/svg">
<path d="M41.0412 88.2775C41.0406 88.278 41.0405 88.2789 41.041 88.2795C41.0416 88.2801 41.0415 88.2811 41.0409 88.2816L40.2403 88.9963C39.7975 89.3916 39.7589 90.0709 40.1542 90.5137L47.644 98.9042C48.235 99.5663 49.2508 99.6239 49.9129 99.0329C50.5749 98.4419 50.6326 97.4261 50.0416 96.764L49.6826 96.3619C49.0259 95.6262 49.0899 94.4973 49.8256 93.8406L66.3719 79.0706C67.1076 78.4138 67.1717 77.285 66.5149 76.5492L62.2339 71.7534C61.5772 71.0177 60.4483 70.9537 59.7126 71.6104L41.0412 88.2775Z" fill="url(#paint0_linear_40000071_8812)"/>
<path d="M16.6447 82.1878C16.6445 82.1879 16.6444 82.1882 16.6445 82.1884C16.6447 82.1887 16.6446 82.189 16.6443 82.1891L15.717 82.7245C15.2046 83.0203 15.0291 83.6755 15.3249 84.1879L20.9501 93.9311C21.3939 94.6997 22.3767 94.963 23.1452 94.5193C23.9138 94.0755 24.1772 93.0928 23.7334 92.3242L23.4649 91.8591C22.9718 91.005 23.2644 89.9129 24.1185 89.4198L38.0365 81.3842C38.8906 80.8911 39.1833 79.7989 38.6902 78.9448L35.4759 73.3775C34.9828 72.5234 33.8906 72.2308 33.0365 72.7239L16.6447 82.1878Z" fill="url(#paint1_linear_40000071_8812)"/>
<path d="M83.6434 7.16991C84.2353 2.18401 78.5702 -1.08668 74.5482 1.91879L60.6812 12.2817C58.1703 14.1581 55.0237 14.9105 51.8904 15.0002C49.7286 15.062 47.5631 14.8042 45.5717 13.9607L34.6496 9.33436C31.1551 7.85416 27.2151 10.129 26.7498 13.8955L25.3582 25.1614C25.0523 27.6381 24.0478 29.9589 22.7726 32.1041C22.6963 32.2325 22.6206 32.3617 22.5456 32.4915C21.2514 34.7333 19.4932 36.7146 17.1981 37.9118L3.75472 44.9246C-0.340415 47.0609 -0.340193 52.9211 3.75498 55.0574L16.5657 61.7401C19.2704 63.151 21.3221 65.4861 22.8976 68.0984C24.0999 70.092 25.0425 72.2692 25.3279 74.5797L26.7495 86.0883C27.2149 89.8548 31.155 92.1296 34.6495 90.6494L45.0843 86.2292C47.3869 85.2538 49.9048 84.9647 52.4053 84.9944C53.2675 85.0047 54.1284 84.983 54.9861 84.9298C56.713 84.8228 58.4538 84.8696 60.1401 85.2574L70.0366 87.5331C72.9577 88.2048 75.9012 86.5053 76.7801 83.6397L79.7607 73.9223C80.2654 72.2769 81.0891 70.7533 82.0382 69.3176C82.4304 68.7244 82.8071 68.1156 83.1674 67.4915C83.2425 67.3615 83.3166 67.2313 83.3897 67.1007C84.6101 64.9239 86.1182 62.8937 88.1102 61.3903L97.1702 54.5528C100.199 52.2666 100.199 47.7168 97.1701 45.4305L87.7031 38.2853C85.9769 36.9824 84.6709 35.236 83.6436 33.333C82.1548 30.575 81.2332 27.4742 81.6026 24.3619L83.6434 7.16991Z" fill="#FF8070"/>
<g filter="url(#filter0_d_40000071_8812)">
<rect width="7.85714" height="11.4286" rx="3.92857" transform="matrix(-1 0 0 1 83.4658 38.7324)" fill="white"/>
<rect width="7.5" height="11.4286" rx="3.75" transform="matrix(-1 0 0 1 64.8945 38.7324)" fill="white"/>
</g>
<defs>
<filter id="filter0_d_40000071_8812" x="55.966" y="38.0181" width="28.9284" height="14.2859" filterUnits="userSpaceOnUse" color-interpolation-filters="sRGB">
<feFlood flood-opacity="0" result="BackgroundImageFix"/>
<feColorMatrix in="SourceAlpha" type="matrix" values="0 0 0 0 0 0 0 0 0 0 0 0 0 0 0 0 0 0 127 0" result="hardAlpha"/>
<feOffset dy="0.714286"/>
<feGaussianBlur stdDeviation="0.714286"/>
<feComposite in2="hardAlpha" operator="out"/>
<feColorMatrix type="matrix" values="0 0 0 0 0 0 0 0 0 0 0 0 0 0 0 0 0 0 0.1 0"/>
<feBlend mode="normal" in2="BackgroundImageFix" result="effect1_dropShadow_40000071_8812"/>
<feBlend mode="normal" in="SourceGraphic" in2="effect1_dropShadow_40000071_8812" result="shape"/>
</filter>
<linearGradient id="paint0_linear_40000071_8812" x1="58.3333" y1="82.1808" x2="44.0745" y2="94.9089" gradientUnits="userSpaceOnUse">
<stop stop-color="#EA4E3A"/>
<stop offset="1" stop-color="#FF9183"/>
</linearGradient>
<linearGradient id="paint1_linear_40000071_8812" x1="34.8179" y1="79.7377" x2="18.2712" y2="89.291" gradientUnits="userSpaceOnUse">
<stop stop-color="#EA4E3A"/>
<stop offset="1" stop-color="#FF9183"/>
</linearGradient>
</defs>
</svg>
