<svg width="95" height="95" viewBox="0 0 95 95" fill="none" xmlns="http://www.w3.org/2000/svg">
<path d="M24.3118 88.0008C24.3116 88.0009 24.3113 88.0008 24.3112 88.0006C24.311 88.0004 24.3107 88.0003 24.3105 88.0004L23.4339 88.5065C22.9495 88.7862 22.3302 88.6202 22.0505 88.1358L16.7478 78.9512C16.3293 78.2263 16.5776 77.2994 17.3025 76.8809C18.0275 76.4623 18.9544 76.7107 19.3729 77.4356L19.6262 77.8744C20.0912 78.6797 21.121 78.9556 21.9264 78.4907L40.0364 68.0348C40.8418 67.5699 41.8716 67.8458 42.3365 68.6512L45.3671 73.9002C45.832 74.7056 45.5561 75.7354 44.7508 76.2003L24.3118 88.0008Z" fill="url(#paint0_linear_4018_2651)"/>
<path d="M70.2651 80.8311C70.2656 80.8314 70.2658 80.832 70.2655 80.8325C70.2652 80.8329 70.2654 80.8335 70.2659 80.8338L71.1399 81.3385C71.6231 81.6174 71.7887 82.2353 71.5097 82.7185L66.2057 91.9052C65.7872 92.6301 64.8603 92.8785 64.1354 92.46C63.4104 92.0414 63.1621 91.1145 63.5806 90.3896L63.8339 89.9508C64.2989 89.1455 64.0229 88.1157 63.2176 87.6507L50.094 80.0738C49.2886 79.6088 49.0127 78.579 49.4776 77.7736L52.5087 72.5237C52.9737 71.7184 54.0035 71.4425 54.8088 71.9074L70.2651 80.8311Z" fill="url(#paint1_linear_4018_2651)"/>
<path d="M15.424 6.76041C14.866 2.05903 20.2077 -1.02503 24.0002 1.80894L37.0759 11.5805C39.4436 13.3499 42.4106 14.0593 45.3651 14.1438C47.4036 14.2021 49.4455 13.9591 51.3233 13.1637L61.6221 8.80135C64.9172 7.40562 68.6324 9.55068 69.0711 13.1023L70.3833 23.7253C70.6718 26.0606 71.6189 28.249 72.8213 30.2717C72.8933 30.3929 72.9647 30.5146 73.0354 30.637C74.2558 32.7509 75.9136 34.6191 78.0778 35.7481L90.754 42.3607C94.6155 44.3751 94.6153 49.9009 90.7538 51.9153L78.674 58.2167C76.1237 59.5471 74.189 61.7489 72.7035 64.2121C71.5698 66.092 70.6809 68.1449 70.4118 70.3236L69.0714 81.1755C68.6325 84.727 64.9173 86.872 61.6222 85.4763L51.7828 81.3083C49.6116 80.3886 47.2374 80.116 44.8796 80.144C44.0666 80.1537 43.2548 80.1332 42.4461 80.0831C40.8177 79.9822 39.1762 80.0263 37.5862 80.3919L28.2544 82.5378C25.5 83.1711 22.7244 81.5686 21.8957 78.8666L19.0852 69.7037C18.6093 68.1522 17.8326 66.7155 16.9377 65.3618C16.5679 64.8024 16.2127 64.2283 15.8729 63.6398C15.8021 63.5173 15.7323 63.3944 15.6633 63.2714C14.5125 61.2187 13.0905 59.3044 11.2122 57.8868L2.66914 51.4395C-0.187275 49.2837 -0.18715 44.9935 2.66927 42.8378L11.5961 36.1002C13.2237 34.8717 14.4551 33.2249 15.4239 31.4305C16.8278 28.8299 17.6967 25.9061 17.3484 22.9713L15.424 6.76041Z" fill="#FF8070"/>
<g filter="url(#filter0_d_4018_2651)">
<rect x="23.9004" y="37.5498" width="7.40879" height="10.7764" rx="3.70439" fill="white"/>
<rect x="41.4121" y="37.5498" width="7.07202" height="10.7764" rx="3.53601" fill="white"/>
</g>
<defs>
<filter id="filter0_d_4018_2651" x="22.5533" y="36.8763" width="27.2781" height="13.4705" filterUnits="userSpaceOnUse" color-interpolation-filters="sRGB">
<feFlood flood-opacity="0" result="BackgroundImageFix"/>
<feColorMatrix in="SourceAlpha" type="matrix" values="0 0 0 0 0 0 0 0 0 0 0 0 0 0 0 0 0 0 127 0" result="hardAlpha"/>
<feOffset dy="0.673526"/>
<feGaussianBlur stdDeviation="0.673526"/>
<feComposite in2="hardAlpha" operator="out"/>
<feColorMatrix type="matrix" values="0 0 0 0 0 0 0 0 0 0 0 0 0 0 0 0 0 0 0.1 0"/>
<feBlend mode="normal" in2="BackgroundImageFix" result="effect1_dropShadow_4018_2651"/>
<feBlend mode="normal" in="SourceGraphic" in2="effect1_dropShadow_4018_2651" result="shape"/>
</filter>
<linearGradient id="paint0_linear_4018_2651" x1="34.8784" y1="74.3154" x2="19.2712" y2="83.3262" gradientUnits="userSpaceOnUse">
<stop stop-color="#EA4E3A"/>
<stop offset="1" stop-color="#FF9183"/>
</linearGradient>
<linearGradient id="paint1_linear_4018_2651" x1="53.1289" y1="78.5215" x2="68.7319" y2="87.5298" gradientUnits="userSpaceOnUse">
<stop stop-color="#EA4E3A"/>
<stop offset="1" stop-color="#FF9183"/>
</linearGradient>
</defs>
</svg>
