<svg width="24" height="24" viewBox="0 0 24 24" fill="none" xmlns="http://www.w3.org/2000/svg">
<path d="M14.9336 1C15.1639 1 15.3887 1.06641 15.5811 1.19043L15.6621 1.24707L20.4932 4.96094C20.6353 5.07018 20.7507 5.20959 20.8311 5.36816L20.8994 5.53223L22.9189 11.624C22.9998 11.868 22.9998 12.1319 22.9189 12.376L20.9004 18.4678C20.8252 18.6945 20.6835 18.8935 20.4941 19.0391L15.6621 22.7529C15.4535 22.9131 15.1976 23 14.9346 23H9.04688C8.78361 23 8.5271 22.9134 8.31836 22.7529L3.4873 19.0391C3.29799 18.8935 3.15621 18.6944 3.08105 18.4678L1.06152 12.376C0.980612 12.132 0.980657 11.868 1.06152 11.624L3.08008 5.53223L3.14844 5.36816C3.22879 5.20962 3.34422 5.07016 3.48633 4.96094L8.31738 1.24707L8.39844 1.19043C8.59079 1.06642 8.81566 1 9.0459 1H14.9336Z" fill="#82EBD1" stroke="white" stroke-width="2"/>
</svg>
