<svg width="24" height="27" viewBox="0 0 24 27" fill="none" xmlns="http://www.w3.org/2000/svg">
<mask id="path-1-outside-1_40000062_8778" maskUnits="userSpaceOnUse" x="0" y="-0.996094" width="24" height="28" fill="black">
<rect fill="white" y="-0.996094" width="24" height="28"/>
<path d="M7.60547 2.04738C7.44051 1.9321 7.21531 2.06075 7.23145 2.26125L7.53711 5.97707C4.25528 7.61719 2.00016 11.0068 2 14.9253C2 20.4484 6.47726 24.9262 12 24.9263C17.5228 24.9263 22 20.4484 22 14.9253C21.9998 9.4024 17.5227 4.92531 12 4.92531C11.9108 4.92531 11.822 4.92885 11.7334 4.93117L7.60547 2.04738Z"/>
</mask>
<path d="M7.60547 2.04738C7.44051 1.9321 7.21531 2.06075 7.23145 2.26125L7.53711 5.97707C4.25528 7.61719 2.00016 11.0068 2 14.9253C2 20.4484 6.47726 24.9262 12 24.9263C17.5228 24.9263 22 20.4484 22 14.9253C21.9998 9.4024 17.5227 4.92531 12 4.92531C11.9108 4.92531 11.822 4.92885 11.7334 4.93117L7.60547 2.04738Z" fill="#AF85FF"/>
<path d="M7.60547 2.04738L6.46008 3.68692L6.45981 3.68673L7.60547 2.04738ZM7.23145 2.26125L5.23817 2.42522L5.23789 2.42172L7.23145 2.26125ZM7.53711 5.97707L9.53038 5.8131L9.64128 7.16134L8.43119 7.7661L7.53711 5.97707ZM2 14.9253H0V14.9252L2 14.9253ZM12 24.9263V26.9263H12L12 24.9263ZM22 14.9253L24 14.9252V14.9253H22ZM12 4.92531L12 2.92531H12V4.92531ZM11.7334 4.93117L11.7858 6.93048L11.1277 6.94772L10.588 6.57071L11.7334 4.93117ZM7.60547 2.04738L6.45981 3.68673C7.67465 4.53572 9.34523 3.59444 9.225 2.10078L7.23145 2.26125L5.23789 2.42172C5.08538 0.527063 7.20636 -0.671527 8.75113 0.408033L7.60547 2.04738ZM7.23145 2.26125L9.22471 2.09728L9.53038 5.8131L7.53711 5.97707L5.54384 6.14104L5.23818 2.42522L7.23145 2.26125ZM7.53711 5.97707L8.43119 7.7661C5.79991 9.0811 4.00012 11.7945 4 14.9254L2 14.9253L0 14.9252C0.00018692 10.2192 2.71065 6.15328 6.64303 4.18804L7.53711 5.97707ZM2 14.9253H4C4 19.344 7.58203 22.9262 12 22.9263L12 24.9263L12 26.9263C5.37249 26.9262 0 21.5527 0 14.9253H2ZM12 24.9263V22.9263C16.418 22.9263 20 19.3441 20 14.9253H22H24C24 21.5528 18.6276 26.9263 12 26.9263V24.9263ZM22 14.9253L20 14.9254C19.9998 10.507 16.418 6.92531 12 6.92531V4.92531V2.92531C18.6273 2.92531 23.9997 8.29786 24 14.9252L22 14.9253ZM12 4.92531L12 6.92531C11.9457 6.92531 11.9106 6.92722 11.7858 6.93048L11.7334 4.93117L11.681 2.93186C11.7334 2.93048 11.8759 2.92531 12 2.92531L12 4.92531ZM11.7334 4.93117L10.588 6.57071L6.46008 3.68692L7.60547 2.04738L8.75086 0.407843L12.8788 3.29163L11.7334 4.93117Z" fill="white" mask="url(#path-1-outside-1_40000062_8778)"/>
</svg>
